<svg width="30" height="30" viewBox="0 0 30 30" fill="none" xmlns="http://www.w3.org/2000/svg">
<path d="M10.3478 12.1811L18.7355 20.5687C19.6773 21.51 20.6566 21.3595 21.5352 20.4804L27.7628 14.2779C28.6414 13.3993 28.7802 12.42 27.8378 11.4782L26.5698 10.2225C25.0762 11.5532 20.8821 14.542 20.2296 13.8889C20.0159 13.6752 20.1921 13.4871 20.3175 13.3612C21.6986 11.9427 23.5441 9.6825 23.783 7.41L17.1659 0.792856C16.3875 0.214285 15.2319 0.42857 14.6046 0.93107C13.3366 2.72678 13.3618 5.72732 10.3478 9.31875C9.51963 10.3232 9.38141 11.2146 10.3478 12.1811ZM2.93999 28.3029C4.59749 29.9352 6.68195 29.985 8.1632 28.5037C9.33106 27.3487 10.5487 24.2475 11.3903 22.8037L14.9057 26.3062C15.9102 27.3112 17.0277 27.3359 17.9694 26.3946L18.7607 25.5911C19.702 24.6493 19.6768 23.5318 18.6852 22.5268L8.72838 12.5711C7.72391 11.5537 6.61927 11.5291 5.66463 12.4961L4.87391 13.2857C3.90695 14.2398 3.93213 15.3321 4.94891 16.3495L8.43963 19.8525C7.0082 20.6936 3.89463 21.9241 2.73963 23.0791C1.21981 24.5861 1.29534 26.6834 2.93999 28.3029ZM4.64784 26.5318C4.2332 26.1048 4.22088 25.4271 4.64784 25.0002C5.08713 24.5732 5.76534 24.5732 6.19231 25.0002C6.61927 25.4395 6.61927 26.0925 6.19231 26.5323C5.76534 26.9716 5.08713 26.9834 4.64784 26.5318Z" fill="white"/>
</svg>
